<svg class="svg-icon" style="width: 1em; height: 1em;vertical-align: middle;fill: currentColor;overflow: hidden;" viewBox="0 0 1024 1024" version="1.1" xmlns="http://www.w3.org/2000/svg"><path d="M196.571136 513.855488c0 174.10048 141.135872 315.236352 315.236352 315.236352 174.10048 0 315.236352-141.135872 315.236352-315.236352 0-174.102528-141.135872-315.236352-315.236352-315.236352C337.707008 198.619136 196.571136 339.755008 196.571136 513.855488L196.571136 513.855488zM511.807488 45.056C252.893184 45.056 43.008 254.941184 43.008 513.855488c0 258.90816 209.885184 468.799488 468.799488 468.799488 258.90816 0 468.799488-209.891328 468.799488-468.799488C980.609024 254.941184 770.715648 45.056 511.807488 45.056L511.807488 45.056zM511.807488 929.792c-229.71392 0-415.936512-186.222592-415.936512-415.936512 0-229.71392 186.222592-415.936512 415.936512-415.936512S927.744 284.141568 927.744 513.855488C927.744 743.569408 741.521408 929.792 511.807488 929.792L511.807488 929.792zM511.807488 929.792"  /></svg>